<?xml version="1.0" encoding="UTF-8" standalone="no"?>
<svg
   xmlns:dc="http://purl.org/dc/elements/1.1/"
   xmlns:cc="http://creativecommons.org/ns#"
   xmlns:rdf="http://www.w3.org/1999/02/22-rdf-syntax-ns#"
   xmlns:svg="http://www.w3.org/2000/svg"
   xmlns="http://www.w3.org/2000/svg"
   id="svg8"
   version="1.1"
   viewBox="0 0 189.66484 41.221786"
   height="41.221786mm"
   width="189.66484mm">
  <defs
     id="defs2" />
  <metadata
     id="metadata5">
    <rdf:RDF>
      <cc:Work
         rdf:about="">
        <dc:format>image/svg+xml</dc:format>
        <dc:type
           rdf:resource="http://purl.org/dc/dcmitype/StillImage" />
        <dc:title></dc:title>
      </cc:Work>
    </rdf:RDF>
  </metadata>
  <g
     transform="translate(-7.8568222,-201.89274)"
     id="layer1">
    <g
       transform="translate(-0.75595238,70.303571)"
       id="g3710">
      <path
         id="path3712"
         d="m 24.605211,138.18517 c -0.957033,3.58826 -1.80137,6.68623 -1.876303,6.88438 -0.08737,0.23105 -0.26959,0.36028 -0.507989,0.36028 -0.204462,0 -3.179094,-0.75147 -6.610294,-1.66994 -3.4312,-0.91847 -6.4547135,-1.71929 -6.7189191,-1.77959 -0.3806536,-0.0869 0.5749946,0.94969 4.6035791,4.99345 2.796173,2.8067 5.083951,5.17432 5.083951,5.26137 0,0.0871 -2.287356,2.44647 -5.083013,5.24315 -2.795657,2.79669 -4.9913632,5.08488 -4.8793456,5.08488 0.1120176,0 3.1507216,-0.79262 6.7526746,-1.76137 3.601953,-0.96875 6.700142,-1.76137 6.884864,-1.76137 0.20182,0 0.389369,0.14379 0.469939,0.36028 0.07374,0.19816 0.918619,3.2965 1.8775,6.8852 0.95888,3.5887 1.785032,6.52498 1.835892,6.52507 0.05086,8e-5 0.916594,-3.08024 1.923849,-6.84517 1.646037,-6.15256 1.865607,-6.85023 2.169647,-6.89391 0.18605,-0.0267 3.308869,0.74788 6.939598,1.72134 3.63073,0.97346 6.682431,1.76993 6.781561,1.76993 0.09913,0 -2.106037,-2.29038 -4.900367,-5.08974 -2.794332,-2.79936 -5.080602,-5.15659 -5.080602,-5.23829 0,-0.0817 2.28627,-2.43893 5.080602,-5.23829 2.79433,-2.79935 5.02254,-5.08974 4.951578,-5.08974 -0.07096,0 -3.095808,0.79556 -6.721877,1.76791 -3.62607,0.97235 -6.772994,1.74695 -6.993166,1.72134 -0.386857,-0.045 -0.461939,-0.27664 -2.233982,-6.89189 -1.008519,-3.76493 -1.873191,-6.84488 -1.921494,-6.84435 -0.0483,4.8e-4 -0.87085,2.93681 -1.827883,6.52507 z m 53.05995,-6.48838 c 0,0.1363 -3.325663,12.55038 -3.539591,13.21264 -0.130236,0.40316 -0.258117,0.5204 -0.567646,0.5204 -0.219747,0 -3.357635,-0.79558 -6.973084,-1.76797 -3.61545,-0.97238 -6.597749,-1.74376 -6.62733,-1.71418 -0.02958,0.0296 2.177166,2.28387 4.903883,5.00952 3.199319,3.19807 4.95767,5.06933 4.95767,5.27601 0,0.20667 -1.774712,2.09567 -5.002937,5.32511 -2.751614,2.75266 -4.930299,5.00483 -4.841523,5.00483 0.08878,0 3.114701,-0.7919 6.724275,-1.75978 3.609573,-0.96787 6.722196,-1.76049 6.916937,-1.76136 0.422407,-0.002 0.239002,-0.57911 2.459213,7.73947 1.130882,4.23714 1.699625,6.12576 1.784145,5.92461 0.06824,-0.16241 0.881466,-3.1415 1.807168,-6.62021 0.925702,-3.4787 1.753287,-6.48703 1.83908,-6.68519 0.08579,-0.19815 0.294186,-0.36028 0.463096,-0.36028 0.168911,0 3.263338,0.79262 6.876505,1.76137 3.613167,0.96875 6.627431,1.76137 6.698365,1.76137 0.07094,0 -2.121247,-2.2544 -4.871516,-5.00977 -2.750267,-2.75537 -5.000487,-5.11479 -5.000487,-5.24315 0,-0.12836 2.287356,-2.52158 5.083013,-5.31826 2.795658,-2.79668 5.010372,-5.08488 4.921586,-5.08488 -0.08879,0 -3.114716,0.7919 -6.724289,1.75978 -3.609574,0.96787 -6.722453,1.76049 -6.917508,1.76137 -0.195056,8e-4 -0.420734,-0.12451 -0.501507,-0.27863 -0.08077,-0.15411 -0.923004,-3.19848 -1.871622,-6.76525 -1.452683,-5.46204 -1.995896,-7.28216 -1.995896,-6.68757 z m 51.329479,0.13958 c -0.0429,0.12269 -0.84584,3.10531 -1.78429,6.62805 -0.93845,3.52274 -1.77225,6.53108 -1.85288,6.68519 -0.0806,0.15412 -0.3062,0.27951 -0.50126,0.27863 -0.19505,-8e-4 -3.30793,-0.7935 -6.91751,-1.76137 -3.60957,-0.96788 -6.6355,-1.75978 -6.72428,-1.75978 -0.0888,0 2.12592,2.2882 4.92158,5.08488 2.79566,2.79668 5.08301,5.1899 5.08301,5.31826 0,0.12836 -2.25022,2.48778 -5.00048,5.24315 -2.75027,2.75537 -4.94245,5.00977 -4.87152,5.00977 0.0709,0 3.0852,-0.79262 6.69837,-1.76137 3.61316,-0.96875 6.70759,-1.76137 6.8765,-1.76137 0.16891,0 0.37731,0.16213 0.4631,0.36028 0.0858,0.19816 0.91338,3.20649 1.83908,6.68519 0.9257,3.47871 1.73892,6.4578 1.80717,6.62021 0.0845,0.20115 0.65326,-1.68747 1.78414,-5.92461 2.22021,-8.31858 2.03681,-7.74138 2.45921,-7.73947 0.19474,8.8e-4 3.30737,0.79349 6.91694,1.76136 3.60957,0.96788 6.6355,1.75978 6.72427,1.75978 0.0888,0 -2.0899,-2.25217 -4.84152,-5.00483 -3.22822,-3.22944 -5.00293,-5.11844 -5.00293,-5.32511 0,-0.20668 1.75835,-2.07794 4.95766,-5.27601 2.72672,-2.72565 4.93347,-4.97994 4.90389,-5.00952 -0.0296,-0.0296 -3.01188,0.7418 -6.62733,1.71418 -3.61545,0.97239 -6.75334,1.76797 -6.97309,1.76797 -0.49144,0 -0.30874,0.55381 -2.42747,-7.35836 -0.93045,-3.47465 -1.72337,-6.34919 -1.76204,-6.38787 -0.0387,-0.0387 -0.10542,0.0301 -0.14832,0.15277 z m 49.54116,6.66808 c -1.77203,6.61525 -1.84711,6.84688 -2.23397,6.89189 -0.22017,0.0256 -3.3671,-0.74899 -6.99317,-1.72134 -3.62607,-0.97235 -6.65091,-1.76791 -6.72188,-1.76791 -0.071,0 2.15725,2.29039 4.95158,5.08974 2.79433,2.79936 5.0806,5.15659 5.0806,5.23829 0,0.0817 -2.28627,2.43893 -5.0806,5.23829 -2.79433,2.79936 -4.99949,5.08974 -4.90036,5.08974 0.0991,0 3.15083,-0.79647 6.78155,-1.76993 3.63074,-0.97346 6.75355,-1.74806 6.9396,-1.72134 0.30405,0.0437 0.52361,0.74135 2.16966,6.89391 1.00724,3.76493 1.87297,6.84525 1.92384,6.84517 0.0509,-9e-5 0.87702,-2.93637 1.83589,-6.52507 0.95888,-3.5887 1.80376,-6.68704 1.8775,-6.8852 0.0806,-0.21649 0.26812,-0.36028 0.46995,-0.36028 0.18471,0 3.2829,0.79262 6.88485,1.76137 3.60195,0.96875 6.64067,1.76137 6.75267,1.76137 0.11203,0 -2.08368,-2.28819 -4.87934,-5.08488 -2.79565,-2.79668 -5.08301,-5.1561 -5.08301,-5.24315 0,-0.0871 2.28778,-2.45467 5.08395,-5.26137 4.02859,-4.04376 4.98423,-5.08034 4.60358,-4.99345 -0.2642,0.0603 -3.28772,0.86112 -6.71892,1.77959 -3.43119,0.91847 -6.40582,1.66994 -6.61029,1.66994 -0.23841,0 -0.42063,-0.12923 -0.50799,-0.36028 -0.0749,-0.19815 -0.91928,-3.29612 -1.87631,-6.88438 -0.95703,-3.58826 -1.77957,-6.52454 -1.82788,-6.52507 -0.0483,-4.8e-4 -0.91297,3.07942 -1.9215,6.84435 z"
         style="fill:#d62246;fill-opacity:1;stroke:none;stroke-width:0.16012445;stroke-opacity:1" />
    </g>
  </g>
</svg>
